# xmcd
#
# Track frame offsets:
#	150
#	12785
#	32883
#	53065
#	78517
#	100562
#	125213
#	146099
#	169614
#	185856
#	201369
#	219905
#	242489
#	260896
#	282489
#	301711
#	309466
#	332144
#
# Disc length: 4710 seconds
#
# Revision: 0
# Processed by: cddbd v1.5PL3 Copyright (c) Steve Scherf et al.
# Submitted via: dBpowerAMP V4.0
#
DISCID=08126412
DTITLE=Mary J Blige - No More Drama
DYEAR=1900
DGENRE=Blues
TTITLE0=love
TTITLE1=family affair
TTITLE2=steal away
TTITLE3=crazy games
TTITLE4=pms
TTITLE5=no more drama
TTITLE6=keep it moving
TTITLE7=destiny
TTITLE8=where i've been
TTITLE9=beautiful day
TTITLE10=dance for me
TTITLE11=flying away
TTITLE12=never been
TTITLE13=2u
TTITLE14=in the meantime
TTITLE15=forever no more
TTITLE16=testimony
TTITLE17=chacking for me
EXTD=ripped by knorretje
EXTT0=
EXTT1=
EXTT2=
EXTT3=
EXTT4=
EXTT5=
EXTT6=
EXTT7=
EXTT8=
EXTT9=
EXTT10=
EXTT11=
EXTT12=
EXTT13=
EXTT14=
EXTT15=
EXTT16=
EXTT17=
PLAYORDER=
